<mxfile host="app.diagrams.net" agent="Mozilla/5.0 (Windows NT 10.0; Win64; x64) AppleWebKit/537.36 (KHTML, like Gecko) Chrome/131.0.0.0 Safari/537.36" version="25.0.3">
  <diagram name="PÃ¡gina-1" id="TobdI36xzcdZ2-kMD8Hu">
    <mxGraphModel dx="794" dy="412" grid="1" gridSize="10" guides="1" tooltips="1" connect="1" arrows="1" fold="1" page="1" pageScale="1" pageWidth="827" pageHeight="1169" math="0" shadow="0">
      <root>
        <mxCell id="0" />
        <mxCell id="1" parent="0" />
        <mxCell id="e4MjV1icliPvsEqQnidq-3" value="" style="edgeStyle=orthogonalEdgeStyle;rounded=0;orthogonalLoop=1;jettySize=auto;html=1;" edge="1" parent="1" source="e4MjV1icliPvsEqQnidq-1" target="e4MjV1icliPvsEqQnidq-2">
          <mxGeometry relative="1" as="geometry" />
        </mxCell>
        <mxCell id="e4MjV1icliPvsEqQnidq-1" value="Inicio" style="ellipse;whiteSpace=wrap;html=1;aspect=fixed;" vertex="1" parent="1">
          <mxGeometry x="250" y="40" width="80" height="80" as="geometry" />
        </mxCell>
        <mxCell id="e4MjV1icliPvsEqQnidq-5" value="" style="edgeStyle=orthogonalEdgeStyle;rounded=0;orthogonalLoop=1;jettySize=auto;html=1;" edge="1" parent="1" source="e4MjV1icliPvsEqQnidq-2" target="e4MjV1icliPvsEqQnidq-4">
          <mxGeometry relative="1" as="geometry" />
        </mxCell>
        <mxCell id="e4MjV1icliPvsEqQnidq-2" value="&#xa;&lt;span style=&quot;background-color: transparent; color: rgb(26, 26, 26);&quot;&gt;Mostrar mensaje: &quot;Por favor, ingresar las medidas de la pieza del mueble (en cms): &quot;&lt;/span&gt;&#xa;&#xa;" style="shape=parallelogram;perimeter=parallelogramPerimeter;whiteSpace=wrap;html=1;fixedSize=1;rounded=1;fillColor=#b0e3e6;strokeColor=#0e8088;" vertex="1" parent="1">
          <mxGeometry x="160" y="160" width="260" height="70" as="geometry" />
        </mxCell>
        <mxCell id="e4MjV1icliPvsEqQnidq-7" value="" style="edgeStyle=orthogonalEdgeStyle;rounded=0;orthogonalLoop=1;jettySize=auto;html=1;" edge="1" parent="1" source="e4MjV1icliPvsEqQnidq-4" target="e4MjV1icliPvsEqQnidq-6">
          <mxGeometry relative="1" as="geometry" />
        </mxCell>
        <mxCell id="e4MjV1icliPvsEqQnidq-4" value="&#xa;&lt;span style=&quot;background-color: transparent; color: rgb(26, 26, 26);&quot;&gt;Convertir medidas en pulgadas = medidas en cms / 2.54&lt;/span&gt;&#xa;&#xa;" style="rounded=1;whiteSpace=wrap;html=1;fillColor=#d0cee2;strokeColor=#56517e;" vertex="1" parent="1">
          <mxGeometry x="200" y="270" width="180" height="60" as="geometry" />
        </mxCell>
        <mxCell id="e4MjV1icliPvsEqQnidq-9" value="" style="edgeStyle=orthogonalEdgeStyle;rounded=0;orthogonalLoop=1;jettySize=auto;html=1;" edge="1" parent="1" source="e4MjV1icliPvsEqQnidq-6" target="e4MjV1icliPvsEqQnidq-8">
          <mxGeometry relative="1" as="geometry" />
        </mxCell>
        <mxCell id="e4MjV1icliPvsEqQnidq-6" value="&#xa;&lt;span style=&quot;background-color: transparent; color: rgb(26, 26, 26);&quot;&gt;Mostar mensaje: &quot;Las medidas en pulgadas de la pieza ingresada son: &quot;, medidas_en_pulgadas&lt;/span&gt;&#xa;&#xa;" style="shape=parallelogram;perimeter=parallelogramPerimeter;whiteSpace=wrap;html=1;fixedSize=1;rounded=1;fillColor=#b0e3e6;strokeColor=#0e8088;" vertex="1" parent="1">
          <mxGeometry x="175" y="370" width="230" height="80" as="geometry" />
        </mxCell>
        <mxCell id="e4MjV1icliPvsEqQnidq-8" value="Fin" style="ellipse;whiteSpace=wrap;html=1;rounded=1;" vertex="1" parent="1">
          <mxGeometry x="250" y="490" width="80" height="80" as="geometry" />
        </mxCell>
      </root>
    </mxGraphModel>
  </diagram>
</mxfile>
